<?xml version="1.0" encoding="UTF-8" standalone="no"?>
<!DOCTYPE svg PUBLIC "-//W3C//DTD SVG 1.1//EN" "http://www.w3.org/Graphics/SVG/1.1/DTD/svg11.dtd">
<svg width="100%" height="100%" viewBox="0 0 185 125" version="1.1" xmlns="http://www.w3.org/2000/svg" xmlns:xlink="http://www.w3.org/1999/xlink" xml:space="preserve" xmlns:serif="http://www.serif.com/" style="fill-rule:evenodd;clip-rule:evenodd;stroke-linecap:round;stroke-linejoin:round;stroke-miterlimit:1.5;">
    <rect x="0" y="0" width="185" height="125" style="fill:rgb(235,235,235);"/>
    <g transform="matrix(1,0,0,1,0,-1.39239)">
        <g id="Text">
            <g>
                <g transform="matrix(1,0,0,1.1,-11.3634,24.1946)">
                    <g transform="matrix(1,0,0,1,18.692,5.45971)">
                        <text x="58.101px" y="46.31px" style="font-family:'ArialMT', 'Arial', sans-serif;font-size:9.47px;">185 X 125px</text>
                    </g>
                    <g transform="matrix(1,0,0,1,34.0881,3.49997)">
                        <text x="53.989px" y="61.413px" style="font-family:'ArialMT', 'Arial', sans-serif;font-size:9.47px;">Images</text>
                    </g>
                    <g transform="matrix(1,0,0,0.909091,-13.7002,19.8339)">
                        <text x="34.632px" y="19.258px" style="font-family:'ArialMT', 'Arial', sans-serif;font-size:20.833px;">Add Poster Image</text>
                    </g>
                </g>
                <g transform="matrix(1,0,0,1,-21.3634,19.0738)">
                    <circle cx="161.456" cy="15.96" r="5.04" style="stroke:rgb(235,235,235);stroke-width:1px;"/>
                </g>
                <g transform="matrix(1,0,0,1,-9.26706,19.0738)">
                    <circle cx="161.456" cy="15.96" r="5.04" style="stroke:rgb(235,235,235);stroke-width:1px;"/>
                </g>
                <g transform="matrix(1,0,0,1,2.8293,19.0738)">
                    <circle cx="161.456" cy="15.96" r="5.04" style="stroke:rgb(235,235,235);stroke-width:1px;"/>
                </g>
            </g>
        </g>
    </g>
</svg>
