<?xml version="1.0" encoding="UTF-8" standalone="no"?><!DOCTYPE svg PUBLIC "-//W3C//DTD SVG 1.1//EN" "http://www.w3.org/Graphics/SVG/1.1/DTD/svg11.dtd"><svg width="100%" height="100%" viewBox="0 0 151 150" version="1.1" xmlns="http://www.w3.org/2000/svg" xmlns:xlink="http://www.w3.org/1999/xlink" xml:space="preserve" xmlns:serif="http://www.serif.com/" style="fill-rule:evenodd;clip-rule:evenodd;stroke-linejoin:round;stroke-miterlimit:2;"><path d="M72.998,112.16c-2.933,2.933 -7.696,2.933 -10.628,0l-23.664,-23.663c-2.932,-2.933 -2.932,-7.69 0,-10.628l39.405,-39.399c2.933,-2.938 7.69,-2.938 10.628,0l23.658,23.658c2.938,2.937 2.938,7.695 0,10.634l-39.399,39.398Zm10.707,-84.905l-56.214,56.208l39.913,39.913l56.208,-56.214l-39.907,-39.907Z" style="fill:#3cb54a;fill-rule:nonzero;"/><path d="M61.641,35.682l8.149,-8.15l5.624,5.623l-8.15,8.15l-5.623,-5.623Zm-11.239,11.246l8.151,-8.15l5.615,5.623l-8.15,8.151l-5.616,-5.624Zm-8.719,19.952l-8.151,8.157l-5.615,-5.623l8.15,-8.151l5.616,5.617Zm-2.527,-8.713l8.15,-8.15l5.623,5.623l-8.15,8.15l-5.623,-5.623Zm50.594,56.779l-8.151,8.15l-5.623,-5.623l8.149,-8.15l5.625,5.623Zm11.238,-11.247l-8.15,8.151l-5.623,-5.616l8.15,-8.151l5.623,5.616Zm8.712,-19.95l8.15,-8.151l5.623,5.616l-8.15,8.15l-5.623,-5.615Zm2.535,8.712l-8.151,8.149l-5.622,-5.623l8.149,-8.15l5.624,5.624Zm35.548,54.213c0,0.614 -0.494,1.109 -1.108,1.109l-69.828,0l0,-17.409l55.058,-55.056l-1.264,-1.271l-4.072,4.078l-5.623,-5.623l4.072,-4.071l-1.264,-1.264l-56.21,56.209l1.265,1.264l4.071,-4.071l5.623,5.615l-3.872,3.88l0,17.719l-71.305,0c-0.613,0 -1.108,-0.495 -1.108,-1.109l0,-143.349c0,-0.613 0.495,-1.108 1.108,-1.108l71.305,0l0,17.948l-55.153,55.153l1.272,1.263l4.071,-4.079l5.622,5.623l-4.078,4.072l1.271,1.271l56.209,-56.217l-1.263,-1.264l-4.079,4.08l-5.623,-5.624l4.079,-4.079l-0.112,-0.11l0,-18.037l69.828,0c0.614,0 1.108,0.495 1.108,1.108l0,143.349Zm-1.108,-146.674l-143.349,0c-1.833,0 -3.326,1.492 -3.326,3.325l0,143.349c0,1.833 1.493,3.326 3.326,3.326l143.349,0c1.833,0 3.326,-1.493 3.326,-3.326l0,-143.349c0,-1.833 -1.493,-3.325 -3.326,-3.325" style="fill:#3cb54a;fill-rule:nonzero;"/></svg>