<?xml version="1.0" encoding="UTF-8" standalone="no"?>
<!DOCTYPE svg PUBLIC "-//W3C//DTD SVG 1.1//EN" "http://www.w3.org/Graphics/SVG/1.1/DTD/svg11.dtd">
<svg width="100%" height="100%" viewBox="0 0 199 199" version="1.1" xmlns="http://www.w3.org/2000/svg" xmlns:xlink="http://www.w3.org/1999/xlink" xml:space="preserve" xmlns:serif="http://www.serif.com/" style="fill-rule:evenodd;clip-rule:evenodd;stroke-miterlimit:10;">
    <g transform="matrix(0.998753,0.998753,-0.998753,0.998753,109.547,59.8291)">
        <path d="M0,-35.318L-9.948,-45.267L4.477,-59.693L14.426,-49.744L0,-35.318ZM-19.897,-15.421L-29.846,-25.369L-15.421,-39.795L-5.472,-29.846L-19.897,-15.421ZM-39.795,4.477L-49.743,-5.472L-35.318,-19.898L-25.369,-9.949L-39.795,4.477ZM-59.692,24.374L-69.641,14.426L-55.216,0L-45.267,9.949L-59.692,24.374ZM27.11,-62.428L19.897,-55.215L9.949,-65.164L17.161,-72.377L14.923,-74.615L-84.564,24.871L-82.325,27.11L-75.113,19.897L-65.164,29.846L-72.377,37.059L-70.139,39.297L29.349,-60.19L27.11,-62.428Z" style="fill-rule:nonzero;"/>
    </g>
    <g transform="matrix(0.998753,0.998753,-0.998753,0.998753,109.547,229.74)">
        <path d="M0,-35.318L-9.948,-45.267L4.477,-59.693L14.426,-49.744L0,-35.318ZM-19.897,-15.421L-29.846,-25.37L-15.421,-39.795L-5.472,-29.846L-19.897,-15.421ZM-39.795,4.477L-49.743,-5.472L-35.318,-19.897L-25.369,-9.949L-39.795,4.477ZM-59.692,24.374L-69.641,14.425L-55.216,-0.001L-45.267,9.949L-59.692,24.374ZM27.11,-62.428L19.897,-55.215L9.949,-65.164L17.161,-72.377L14.923,-74.615L-84.564,24.871L-82.325,27.11L-75.112,19.897L-65.164,29.846L-72.377,37.059L-70.139,39.297L29.349,-60.19L27.11,-62.428Z" style="fill-rule:nonzero;"/>
    </g>
    <g transform="matrix(0,-1.41245,-1.41245,0,219.508,119.701)">
        <rect x="-35.522" y="14.714" width="99.894" height="140.696" style="stroke:white;stroke-width:0.71px;"/>
    </g>
    <g transform="matrix(0.998753,0.998753,-0.998753,0.998753,141.186,10.8915)">
        <path d="M0,130.42L-41.875,88.544C-47.069,83.35 -47.069,74.927 -41.875,69.732L27.856,0.001C33.052,-5.194 41.474,-5.194 46.669,0.001L88.544,41.876C93.738,47.071 93.738,55.493 88.544,60.688L18.812,130.42C13.617,135.614 5.195,135.614 0,130.42Z" style="fill:white;fill-rule:nonzero;stroke:white;stroke-width:0.71px;"/>
    </g>
</svg>
