<?xml version="1.0" encoding="UTF-8" standalone="no"?><!DOCTYPE svg PUBLIC "-//W3C//DTD SVG 1.1//EN" "http://www.w3.org/Graphics/SVG/1.1/DTD/svg11.dtd"><svg width="100%" height="100%" viewBox="0 0 150 150" version="1.1" xmlns="http://www.w3.org/2000/svg" xmlns:xlink="http://www.w3.org/1999/xlink" xml:space="preserve" xmlns:serif="http://www.serif.com/" style="fill-rule:evenodd;clip-rule:evenodd;stroke-linejoin:round;stroke-miterlimit:2;"><path d="M147.75,81.75l-21.765,0c-0.172,-7.148 -0.278,-24.546 -0.278,-24.546c0.001,0 -3.577,-0.204 -17.137,-0.204l-9.563,0l0.001,19.748l13.862,-0.023l-0.053,11.55c0,0 -12.105,-0.037 -13.81,-0.037l0.001,24.524l5.565,0c16.11,0 21.052,-0.323 21.052,-0.323c0,0 0.06,-21.239 0.345,-28.439l21.78,0l0,60.69c0,1.688 -1.373,3.06 -3.06,3.06l-89.565,0l0,-20.25l71.153,0c1.86,0 3.525,-1.485 3.629,-3.465c0.098,-2.115 -1.477,-3.855 -3.435,-3.855l-0.435,0l0,-3.405l-68.91,0c-1.552,0 -2.97,0.638 -4.035,1.673l0,29.302l-47.782,0c-1.688,0 -3.06,-1.373 -3.06,-3.06l0,-19.815l21.397,0c0.413,1.515 1.733,2.625 3.3,2.625l22.553,0l0,-8.843c-1.095,-1.162 -2.61,-1.882 -4.275,-1.882l-19.208,0l0,3.405l1.118,0c-1.515,0 -2.917,0.998 -3.42,2.445l-21.465,0l0,-61.875l20.572,0c0.503,1.133 1.583,1.928 2.843,1.928l0.352,0l0,50.085l19.208,0c1.665,0 3.18,-0.72 4.275,-1.883l0,-4.305l-13.5,0.01l0,-29.624l13.5,-0.011l0,-19.95l-23.678,0c-1.215,0 -2.369,0.413 -2.947,1.5l-20.625,0l0,-53.19c0,-1.688 1.372,-3.06 3.06,-3.06l47.782,0l0,7.875c0,0 -33.002,24.98 -46.183,34.956c-0.77,0.583 -1.082,1.594 -0.775,2.51c0.308,0.917 1.167,1.534 2.133,1.534l44.826,0l-0.001,27.825l13.5,0l0.008,29.625l-13.508,0l0,4.38c1.118,1.118 2.265,1.808 3.915,1.808l37.995,-0.001l0,-24.524l-13.552,0.007l0,-11.497l13.552,0l0,-19.748l-39.502,0l0,-7.875l88.197,0c1.082,0 2.011,-0.771 2.211,-1.835c0.2,-1.064 -0.386,-2.119 -1.395,-2.512c-26.12,-10.168 -89.013,-34.653 -89.013,-34.653l0,-7.875l89.19,0c1.688,0 3.06,1.373 3.06,3.06l0,76.44Zm-3.06,-81.75l-139.38,0c-2.933,0 -5.31,2.378 -5.31,5.31l0,139.38c0,2.933 2.377,5.31 5.31,5.31l139.38,0c2.933,0 5.31,-2.377 5.31,-5.31l0,-139.38c0,-2.932 -2.377,-5.31 -5.31,-5.31" style="fill:#184f90;fill-rule:nonzero;"/></svg>