<?xml version="1.0" encoding="UTF-8" standalone="no"?>
<!DOCTYPE svg PUBLIC "-//W3C//DTD SVG 1.1//EN" "http://www.w3.org/Graphics/SVG/1.1/DTD/svg11.dtd">
<svg width="100%" height="100%" viewBox="0 0 200 200" version="1.1" xmlns="http://www.w3.org/2000/svg" xmlns:xlink="http://www.w3.org/1999/xlink" xml:space="preserve" xmlns:serif="http://www.serif.com/" style="fill-rule:evenodd;clip-rule:evenodd;stroke-linejoin:round;stroke-miterlimit:2;">
    <g transform="matrix(1,0,0,1,197,137)">
        <path d="M0,-74L-29.02,-74C-29.25,-83.53 -32.57,-91.58 -41.39,-98.17C-50.55,-105.02 -64.16,-107 -82.24,-107L-94.99,-107L-94.99,-98.67L-89.89,-98.67C-83.25,-98.67 -77.69,-98.16 -73.2,-97.12C-68.72,-96.07 -63.49,-94.74 -60.21,-90.2C-56.92,-85.67 -56.62,-81.46 -56.62,-71.83C-56.62,-64.37 -57.5,-60.25 -59.25,-56.73C-59.26,-56.7 -59.27,-56.68 -59.29,-56.65C-59.35,-56.53 -59.41,-56.42 -59.47,-56.3C-59.61,-56.04 -59.9,-55.62 -60.36,-54.92C-61.94,-52.54 -63.98,-50.54 -66.39,-49.16C-69.44,-47.42 -72.55,-46.12 -73.73,-45.72C-74.36,-45.5 -74.99,-45.32 -75.64,-45.17C-77.71,-44.68 -80,-44.3 -82.5,-44.01C-86.2,-43.58 -90.36,-43.35 -94.99,-43.35L-94.99,-36.65L-87.57,-36.65C-66.09,-36.65 -50.74,-38.69 -41.5,-45.64C-32.84,-52.14 -29.42,-61.4 -29.04,-71L0,-71L0,55.92C0,58.17 -1.83,60 -4.08,60L-123.5,60L-123.5,33L-94.63,33C-92.15,33 -89.93,31.02 -89.79,28.38C-89.66,25.56 -91.76,23.24 -94.37,23.24L-114.95,23.24L-114.95,-31.3L-120.83,-31.3C-122.9,-31.3 -124.79,-30.45 -126.21,-29.07L-126.21,60L-189.92,60C-192.17,60 -194,58.17 -194,55.92L-194,29.5L-165.47,29.5C-164.92,31.52 -163.16,33 -161.07,33L-131,33L-131,-28.79C-132.46,-30.34 -134.48,-31.3 -136.7,-31.3L-142.31,-31.3L-142.31,23.24L-160.82,23.24C-162.84,23.24 -164.71,24.57 -165.38,26.5L-194,26.5L-194,-102L-166.57,-102C-165.9,-100.49 -164.46,-99.43 -162.78,-99.43L-142.31,-99.43L-142.31,-36.65L-136.7,-36.65C-134.48,-36.65 -132.46,-37.61 -131,-39.16L-131,-107L-162.57,-107C-164.19,-107 -165.73,-106.45 -166.5,-105L-194,-105L-194,-129.92C-194,-132.17 -192.17,-134 -189.92,-134L-126.21,-134L-126.21,-39.06C-124.72,-37.57 -123.19,-36.65 -120.99,-36.65L-100.33,-36.65L-100.33,-43.35L-115.4,-43.34L-115.4,-98.67L-100.33,-98.67L-100.33,-107L-123,-107L-123,-134L-4.08,-134C-1.83,-134 0,-132.17 0,-129.92L0,-74ZM-4.08,-137L-189.92,-137C-193.83,-137 -197,-133.83 -197,-129.92L-197,55.92C-197,59.83 -193.83,63 -189.92,63L-4.08,63C-0.17,63 3,59.83 3,55.92L3,-129.92C3,-133.83 -0.17,-137 -4.08,-137" style="fill:rgb(179,179,179);fill-rule:nonzero;"/>
    </g>
    <g transform="matrix(1,0,0,1,30.0591,33.1946)">
        <path d="M0,0.49C-0.023,0.311 -0.048,0.133 -0.051,-0.052C-0.042,0.157 -0.023,0.542 0,0.49" style="fill:rgb(237,28,36);fill-rule:nonzero;"/>
    </g>
    <g transform="matrix(1,0,0,1,30.0156,33.5292)">
        <path d="M0,-0.227C0.009,-0.043 0.023,0.16 0.039,0.16C0.041,0.16 0.042,0.158 0.043,0.155C0.027,0.028 0.01,-0.098 0,-0.227M-0.008,-0.387C-0.007,-0.333 -0.004,-0.28 0,-0.227C-0.003,-0.285 -0.005,-0.34 -0.008,-0.387" style="fill:rgb(29,79,144);fill-rule:nonzero;"/>
    </g>
    <g transform="matrix(1,0,0,1,30,33.0561)">
        <path d="M0,0.002C0,0.031 0.007,0.057 0.008,0.086C0.003,-0.022 0,-0.084 0,0.002" style="fill:rgb(237,28,36);fill-rule:nonzero;"/>
    </g>
    <g transform="matrix(1,0,0,1,30.0073,33.0289)">
        <path d="M0,0.102L0,0.113L0,0.102M-0.006,-0.011C-0.007,-0.011 -0.007,0.001 -0.007,0.029C-0.007,0.054 -0.001,0.078 0,0.102C-0.003,0.035 -0.005,-0.011 -0.006,-0.011" style="fill:rgb(29,79,144);fill-rule:nonzero;"/>
    </g>
</svg>
