<?xml version="1.0" encoding="UTF-8" standalone="no"?><!DOCTYPE svg PUBLIC "-//W3C//DTD SVG 1.1//EN" "http://www.w3.org/Graphics/SVG/1.1/DTD/svg11.dtd"><svg width="100%" height="100%" viewBox="0 0 150 150" version="1.1" xmlns="http://www.w3.org/2000/svg" xmlns:xlink="http://www.w3.org/1999/xlink" xml:space="preserve" xmlns:serif="http://www.serif.com/" style="fill-rule:evenodd;clip-rule:evenodd;stroke-linejoin:round;stroke-miterlimit:2;"><path d="M92.888,84.727c-0.308,1.261 -1.575,2.033 -2.835,1.725c-1.26,-0.306 -2.033,-1.575 -1.725,-2.834c0.307,-1.261 1.575,-2.032 2.835,-1.725c1.26,0.307 2.032,1.582 1.725,2.834m-33.278,-23.82c1.268,-0.351 2.573,0.391 2.925,1.658c0.345,1.268 -0.397,2.572 -1.657,2.926c-1.268,0.351 -2.58,-0.399 -2.925,-1.658c-0.353,-1.268 0.39,-2.581 1.657,-2.926m88.163,-36.157l-26.94,0l0,-10.77c0,-2.01 -1.628,-3.638 -3.638,-3.638l-0.675,0c-1.192,0 -2.302,0.593 -2.985,1.568c-1.627,2.317 -3.225,4.305 -4.8,5.97c-1.252,1.312 -3.27,1.537 -4.755,0.488c-10.02,-7.095 -22.162,-10.643 -36.427,-10.643c-14.61,0 -26.978,3.787 -37.095,11.356c-10.125,7.574 -15.18,16.964 -15.18,28.184c0,20.73 17.122,36.87 48.36,42.42c2.812,0.502 5.092,-2.273 4.027,-4.928c-1.095,-2.73 -3.375,-6.495 -3.375,-10.117c0,-4.755 2.115,-9.045 4.185,-12.089c1.485,-2.183 0.203,-5.169 -2.407,-5.589c-8.37,-1.365 -23.97,-6.87 -27.368,-8.805c-4.897,-2.775 -7.342,-6.555 -7.342,-11.347c0,-5.662 3.45,-10.703 10.357,-15.113c6.9,-4.41 15.51,-6.614 25.838,-6.614c22.92,0 37.672,9.794 44.265,29.392c0.495,1.47 1.89,2.46 3.442,2.46l1.935,0c2.01,0 3.638,-1.628 3.638,-3.637l0,-16.298l26.94,0l0,117.428c0,1.845 -1.5,3.345 -3.345,3.345l-138.855,0c-1.845,0 -3.345,-1.5 -3.345,-3.345l0,-29.678l11.842,0l0,20.048c0,2.264 1.838,4.109 4.11,4.109l1.635,0c0.84,0 1.658,-0.255 2.348,-0.734l10.68,-7.441c1.395,-0.967 3.24,-0.975 4.65,-0.021c13.485,9.06 27.39,13.59 41.722,13.59c15.413,0 28.313,-4.253 38.7,-12.744c10.388,-8.497 15.585,-19.117 15.585,-31.86c0,-22.95 -14.137,-39.69 -46.86,-39.84c-7.515,-0.03 0.045,6.36 0.045,15.196c0,4.477 -3.03,8.549 -4.635,11.549c-1.357,2.528 0.195,5.625 3.03,6.03c15.21,2.183 23.348,1.5 27.405,3.968c5.033,3.046 7.545,7.567 7.545,13.552c0,7.193 -4.222,13.455 -12.667,18.788c-8.445,5.34 -17.828,8.01 -28.148,8.01c-26.437,0 -45.472,-14.543 -57.105,-43.635c-0.622,-1.568 -2.137,-2.603 -3.817,-2.603l-0.113,0c-2.272,0 -4.11,1.845 -4.11,4.119l0,17.669l-11.842,0l0,-106.928c0,-1.845 1.5,-3.345 3.345,-3.345l138.855,0c1.845,0 3.345,1.5 3.345,3.345l0,19.178Zm-3.345,-24.75l-138.855,0c-3.075,0 -5.573,2.497 -5.573,5.572l0,138.856c0,3.074 2.498,5.572 5.573,5.572l138.855,0c3.075,0 5.572,-2.498 5.572,-5.572l0,-138.856c0,-3.075 -2.498,-5.572 -5.572,-5.572" style="fill:#3cb54a;fill-rule:nonzero;"/><path d="M81.383,74.936c0,3.368 -2.73,6.099 -6.099,6.099c-3.369,0 -6.099,-2.731 -6.099,-6.099c0,-3.369 2.73,-6.1 6.099,-6.1c3.369,0 6.099,2.731 6.099,6.1" style="fill:#3cb54a;fill-rule:nonzero;"/></svg>