<?xml version="1.0" encoding="UTF-8" standalone="no"?>
<!DOCTYPE svg PUBLIC "-//W3C//DTD SVG 1.1//EN" "http://www.w3.org/Graphics/SVG/1.1/DTD/svg11.dtd">
<svg width="100%" height="100%" viewBox="0 0 202 200" version="1.1" xmlns="http://www.w3.org/2000/svg" xmlns:xlink="http://www.w3.org/1999/xlink" xml:space="preserve" xmlns:serif="http://www.serif.com/" style="fill-rule:evenodd;clip-rule:evenodd;stroke-linejoin:round;stroke-miterlimit:2;">
    <g transform="matrix(1,0,0,1,124.703,101.851)">
        <path d="M0,-0.001C0,1.063 -0.063,2.12 -0.189,3.149C-0.308,4.122 -0.483,5.074 -0.707,6.006C-1.267,8.315 -2.135,10.507 -3.269,12.522C-3.759,13.384 -4.298,14.224 -4.879,15.021C-6.258,16.918 -7.889,18.612 -9.73,20.068C-10.528,20.691 -11.361,21.279 -12.229,21.811C-14.21,23.022 -16.366,23.968 -18.648,24.611C-19.642,24.885 -20.664,25.102 -21.7,25.263C-22.953,25.451 -24.241,25.55 -25.55,25.55C-26.614,25.55 -27.671,25.486 -28.7,25.36C-29.757,25.228 -30.8,25.031 -31.815,24.772C-34.118,24.198 -36.302,23.303 -38.311,22.147C-39.235,21.608 -40.124,21.014 -40.971,20.369C-42.84,18.955 -44.506,17.289 -45.92,15.42C-46.564,14.573 -47.159,13.685 -47.698,12.761C-48.853,10.751 -49.749,8.567 -50.323,6.265C-50.582,5.249 -50.778,4.206 -50.911,3.149C-51.037,2.12 -51.1,1.063 -51.1,-0.001C-51.1,-1.31 -51.002,-2.598 -50.813,-3.851C-50.652,-4.887 -50.435,-5.909 -50.162,-6.902C-49.518,-9.185 -48.573,-11.341 -47.362,-13.322C-46.83,-14.189 -46.242,-15.022 -45.619,-15.821C-44.163,-17.662 -42.469,-19.293 -40.572,-20.671C-39.774,-21.252 -38.934,-21.792 -38.073,-22.282C-36.057,-23.416 -33.866,-24.284 -31.556,-24.844C-30.625,-25.067 -29.673,-25.243 -28.7,-25.362C-27.671,-25.488 -26.614,-25.551 -25.55,-25.551C-24.241,-25.551 -22.953,-25.453 -21.7,-25.264C-20.755,-25.117 -19.824,-24.928 -18.914,-24.676C-16.618,-24.066 -14.455,-23.143 -12.46,-21.953C-11.655,-21.47 -10.878,-20.938 -10.129,-20.371C-8.26,-18.957 -6.594,-17.291 -5.18,-15.421C-4.613,-14.672 -4.081,-13.896 -3.598,-13.091C-2.408,-11.096 -1.484,-8.933 -0.875,-6.637C-0.623,-5.727 -0.434,-4.795 -0.287,-3.851C-0.098,-2.598 0,-1.31 0,-0.001M-24.85,-34.301C-43.764,-34.301 -59.15,-18.915 -59.15,-0.001C-59.15,18.913 -43.764,34.3 -24.85,34.3C-5.936,34.3 9.45,18.913 9.45,-0.001C9.45,-18.915 -5.936,-34.301 -24.85,-34.301" style="fill:rgb(153,153,153);fill-rule:nonzero;"/>
    </g>
    <g transform="matrix(1,0,0,1,198.005,5.566)">
        <path d="M0,188.868C0,190.283 -1.151,191.434 -2.566,191.434L-94.502,191.434L-94.502,163.43C-93.367,157.872 -90.572,144.966 -89.047,144.659C-86.915,144.23 -74.947,161.944 -74.947,161.944L-68.479,159.264C-68.479,159.264 -72.727,138.215 -71.021,137.047C-69.316,135.878 -51.477,147.909 -51.477,147.909L-46.527,142.961C-46.527,142.961 -58.687,125.035 -57.56,123.317C-56.433,121.599 -35.173,125.958 -35.173,125.958L-32.493,119.489C-32.493,119.489 -50.845,107.918 -50.477,106.087C-50.041,103.918 -28.502,99.434 -28.502,99.434L-28.502,92.434C-28.502,92.434 -50.078,88.488 -50.458,86.573C-50.872,84.496 -32.493,72.379 -32.493,72.379L-35.173,65.911C-35.173,65.911 -56.556,70.774 -57.571,69.23C-58.787,67.381 -46.527,48.909 -46.527,48.909L-51.477,43.959C-51.477,43.959 -69.635,56.458 -71.305,55.331C-73,54.187 -68.479,32.605 -68.479,32.605L-74.947,29.925C-74.947,29.925 -86.618,48.425 -88.457,48.032C-90.589,47.576 -95.002,25.934 -95.002,25.934L-102.002,25.934C-102.002,25.934 -105.941,47.403 -107.855,47.755C-109.964,48.142 -122.058,29.925 -122.058,29.925L-128.525,32.605C-128.525,32.605 -123.854,53.687 -125.434,54.699C-127.315,55.904 -145.528,43.959 -145.528,43.959L-150.478,48.909C-150.478,48.909 -138.268,66.52 -139.367,68.096C-140.633,69.909 -161.832,65.911 -161.832,65.911L-164.512,72.379C-164.512,72.379 -146.609,83.666 -147.005,85.435C-147.516,87.712 -168.502,92.434 -168.502,92.434L-168.502,99.434C-168.502,99.434 -147.79,102.899 -147.504,104.591C-147.091,107.03 -164.512,119.489 -164.512,119.489L-161.832,125.958C-161.832,125.958 -141.258,121.614 -140.204,123.229C-138.97,125.119 -150.478,142.961 -150.478,142.961L-145.528,147.909C-145.528,147.909 -128.218,135.996 -126.632,137.079C-124.763,138.353 -128.525,159.264 -128.525,159.264L-122.058,161.944C-122.058,161.944 -111.022,144.152 -109.343,144.515C-107.417,144.931 -103.819,158.627 -102.502,163.893L-102.502,191.434L-192.438,191.434C-193.854,191.434 -195.005,190.283 -195.005,188.868L-195.005,0.001C-195.005,-1.414 -193.854,-2.566 -192.438,-2.566L-2.566,-2.566C-1.151,-2.566 0,-1.414 0,0.001L0,188.868ZM-98.152,132.684C-118.221,132.684 -134.552,116.353 -134.552,96.284C-134.552,76.215 -118.221,59.885 -98.152,59.885C-78.083,59.885 -61.752,76.215 -61.752,96.284C-61.752,116.353 -78.083,132.684 -98.152,132.684M-2.566,-5.566L-192.438,-5.566C-195.513,-5.566 -198.005,-3.073 -198.005,0.001L-198.005,188.868C-198.005,191.942 -195.513,194.434 -192.438,194.434L-103.502,194.434C-101.846,194.434 -100.502,193.092 -100.502,191.434L-100.502,189.934L-100.502,165.934L-96.502,165.934L-96.502,191.434C-96.502,193.092 -95.159,194.434 -93.502,194.434L-2.566,194.434C0.508,194.434 3,191.942 3,188.868L3,0.001C3,-3.073 0.508,-5.566 -2.566,-5.566" style="fill:rgb(179,179,179);fill-rule:nonzero;"/>
    </g>
</svg>
