<?xml version="1.0" encoding="UTF-8" standalone="no"?><!DOCTYPE svg PUBLIC "-//W3C//DTD SVG 1.1//EN" "http://www.w3.org/Graphics/SVG/1.1/DTD/svg11.dtd"><svg width="100%" height="100%" viewBox="0 0 202 200" version="1.1" xmlns="http://www.w3.org/2000/svg" xmlns:xlink="http://www.w3.org/1999/xlink" xml:space="preserve" xmlns:serif="http://www.serif.com/" style="fill-rule:evenodd;clip-rule:evenodd;stroke-linejoin:round;stroke-miterlimit:2;"><path d="M124.703,101.85c0,1.064 -0.063,2.121 -0.189,3.15c-0.119,0.973 -0.294,1.925 -0.518,2.857c-0.56,2.309 -1.428,4.501 -2.562,6.516c-0.49,0.862 -1.029,1.702 -1.61,2.499c-1.379,1.897 -3.01,3.591 -4.851,5.047c-0.798,0.623 -1.631,1.211 -2.499,1.743c-1.981,1.211 -4.137,2.157 -6.419,2.8c-0.994,0.274 -2.016,0.491 -3.052,0.652c-1.253,0.188 -2.541,0.287 -3.85,0.287c-1.064,0 -2.121,-0.064 -3.15,-0.19c-1.057,-0.132 -2.1,-0.329 -3.115,-0.588c-2.303,-0.574 -4.487,-1.469 -6.496,-2.625c-0.924,-0.539 -1.813,-1.133 -2.66,-1.778c-1.869,-1.414 -3.535,-3.08 -4.949,-4.949c-0.644,-0.847 -1.239,-1.735 -1.778,-2.659c-1.155,-2.01 -2.051,-4.194 -2.625,-6.496c-0.259,-1.016 -0.455,-2.059 -0.588,-3.116c-0.126,-1.029 -0.189,-2.086 -0.189,-3.15c0,-1.309 0.098,-2.597 0.287,-3.85c0.161,-1.036 0.378,-2.058 0.651,-3.051c0.644,-2.283 1.589,-4.439 2.8,-6.42c0.532,-0.867 1.12,-1.7 1.743,-2.499c1.456,-1.841 3.15,-3.472 5.047,-4.85c0.798,-0.581 1.638,-1.121 2.499,-1.611c2.016,-1.134 4.207,-2.002 6.517,-2.562c0.931,-0.223 1.883,-0.399 2.856,-0.518c1.029,-0.126 2.086,-0.189 3.15,-0.189c1.309,0 2.597,0.098 3.85,0.287c0.945,0.147 1.876,0.336 2.786,0.588c2.296,0.61 4.459,1.533 6.454,2.723c0.805,0.483 1.582,1.015 2.331,1.582c1.869,1.414 3.535,3.08 4.949,4.95c0.567,0.749 1.099,1.525 1.582,2.33c1.19,1.995 2.114,4.158 2.723,6.454c0.252,0.91 0.441,1.842 0.588,2.786c0.189,1.253 0.287,2.541 0.287,3.85m-24.85,-34.3c-18.914,0 -34.3,15.386 -34.3,34.3c0,18.914 15.386,34.301 34.3,34.301c18.914,0 34.3,-15.387 34.3,-34.301c0,-18.914 -15.386,-34.3 -34.3,-34.3" style="fill:#3cb54a;fill-rule:nonzero;"/><path d="M198.005,194.434c0,1.415 -1.151,2.566 -2.566,2.566l-91.936,0l0,-28.004c1.135,-5.558 3.93,-18.464 5.455,-18.771c2.132,-0.429 14.1,17.285 14.1,17.285l6.468,-2.68c0,0 -4.248,-21.049 -2.542,-22.217c1.705,-1.169 19.544,10.862 19.544,10.862l4.95,-4.948c0,0 -12.16,-17.926 -11.033,-19.644c1.127,-1.718 22.387,2.641 22.387,2.641l2.68,-6.469c0,0 -18.352,-11.571 -17.984,-13.402c0.436,-2.169 21.975,-6.653 21.975,-6.653l0,-7c0,0 -21.576,-3.946 -21.956,-5.861c-0.414,-2.077 17.965,-14.194 17.965,-14.194l-2.68,-6.468c0,0 -21.383,4.863 -22.398,3.319c-1.216,-1.849 11.044,-20.321 11.044,-20.321l-4.95,-4.95c0,0 -18.158,12.499 -19.828,11.372c-1.695,-1.144 2.826,-22.726 2.826,-22.726l-6.468,-2.68c0,0 -11.671,18.5 -13.51,18.107c-2.132,-0.456 -6.545,-22.098 -6.545,-22.098l-7,0c0,0 -3.939,21.469 -5.853,21.821c-2.109,0.387 -14.203,-17.83 -14.203,-17.83l-6.467,2.68c0,0 4.671,21.082 3.091,22.094c-1.881,1.205 -20.094,-10.74 -20.094,-10.74l-4.95,4.95c0,0 12.21,17.611 11.111,19.187c-1.266,1.813 -22.465,-2.185 -22.465,-2.185l-2.68,6.468c0,0 17.903,11.287 17.507,13.056c-0.511,2.277 -21.497,6.999 -21.497,6.999l0,7c0,0 20.712,3.465 20.998,5.157c0.413,2.439 -17.008,14.898 -17.008,14.898l2.68,6.469c0,0 20.574,-4.344 21.628,-2.729c1.234,1.89 -10.274,19.732 -10.274,19.732l4.95,4.948c0,0 17.31,-11.913 18.896,-10.83c1.869,1.274 -1.893,22.185 -1.893,22.185l6.467,2.68c0,0 11.036,-17.792 12.715,-17.429c1.926,0.416 5.524,14.112 6.841,19.378l0,27.541l-89.936,0c-1.416,0 -2.567,-1.151 -2.567,-2.566l0,-188.867c0,-1.415 1.151,-2.567 2.567,-2.567l189.872,0c1.415,0 2.566,1.152 2.566,2.567l0,188.867Zm-98.152,-56.184c-20.069,0 -36.4,-16.331 -36.4,-36.4c0,-20.069 16.331,-36.399 36.4,-36.399c20.069,0 36.4,16.33 36.4,36.399c0,20.069 -16.331,36.4 -36.4,36.4m95.586,-138.25l-189.872,0c-3.075,0 -5.567,2.493 -5.567,5.567l0,188.867c0,3.074 2.492,5.566 5.567,5.566l88.936,0c1.656,0 3,-1.342 3,-3l0,-1.5l0,-24l4,0l0,25.5c0,1.658 1.343,3 3,3l90.936,0c3.074,0 5.566,-2.492 5.566,-5.566l0,-188.867c0,-3.074 -2.492,-5.567 -5.566,-5.567" style="fill:#3cb54a;fill-rule:nonzero;"/></svg>