<?xml version="1.0" encoding="UTF-8" standalone="no"?>
<!DOCTYPE svg PUBLIC "-//W3C//DTD SVG 1.1//EN" "http://www.w3.org/Graphics/SVG/1.1/DTD/svg11.dtd">
<svg width="100%" height="100%" viewBox="0 0 3007 4456" version="1.1" xmlns="http://www.w3.org/2000/svg" xmlns:xlink="http://www.w3.org/1999/xlink" xml:space="preserve" xmlns:serif="http://www.serif.com/" style="fill-rule:evenodd;clip-rule:evenodd;stroke-miterlimit:10;">
    <g transform="matrix(-0.000592713,4.16667,4.16667,0.000592713,1594.09,2386.5)">
        <g id="Layer-1" serif:id="Layer 1">
            <path d="M235.466,-235.566C105.893,-235.009 0.017,-129.808 -0.001,-0.102C-0.019,129.961 105.403,235.413 235.466,235.432C365.529,235.45 470.98,130.028 470.999,-0.034C471.017,-129.79 365.172,-235.052 235.532,-235.566" style="fill:none;fill-rule:nonzero;stroke:rgb(128,128,128);stroke-width:40px;"/>
        </g>
    </g>
    <g id="Layer-2" serif:id="Layer 2" transform="matrix(4.16667,0,0,4.16667,0,0)">
        <g transform="matrix(1,0,0,1,633.719,566.385)">
            <path d="M0,1.226C0.456,0.824 0.926,0.415 1.405,0C0.689,0.356 0.101,0.786 0,1.226" style="fill:rgb(237,28,36);fill-rule:nonzero;"/>
        </g>
        <g transform="matrix(1,0,0,1,657.48,70.3592)">
            <path d="M0,630.641C2,638.641 3,646.641 3.07,655.361C3.05,656.29 3.01,657.231 2.96,658.161C2.7,662.83 2.13,667.561 1.19,672.401C0.86,674.87 0.51,677.261 0.14,679.571C-0.74,685.051 -1.72,690.091 -2.76,694.651C-4.89,680.805 -7.254,658.483 -12.026,639.014C-14.774,627.805 -19.218,613.727 -24.301,602.66C-28.956,592.521 -34.319,584.995 -35.83,582.701C-44.64,568.441 -54.73,555.141 -66.67,543.451C-68.75,541.341 -70.88,539.261 -73.05,537.221C-85.97,524.421 -100.13,512.861 -115.32,502.721C-117.04,501.571 -118.77,500.451 -120.51,499.351C-121.01,499.031 -121.51,498.721 -122.01,498.401C-123.32,497.581 -124.64,496.771 -125.96,495.971C-126.47,495.661 -126.98,495.351 -127.48,495.051C-131.03,492.931 -134.64,490.881 -138.29,488.921C-138.81,488.631 -139.33,488.361 -139.85,488.081C-141.23,487.351 -142.61,486.631 -143.99,485.931C-144.52,485.661 -145.05,485.381 -145.58,485.12C-149.29,483.251 -153.05,481.471 -156.86,479.761C-157.4,479.511 -157.95,479.281 -158.5,479.031C-159.93,478.401 -161.36,477.781 -162.8,477.181C-163.35,476.941 -163.9,476.711 -164.46,476.481C-168.32,474.881 -172.22,473.361 -176.17,471.931C-176.73,471.721 -177.3,471.531 -177.87,471.321C-179.35,470.791 -180.84,470.281 -182.34,469.771C-182.91,469.581 -183.47,469.391 -184.04,469.201C-188.05,467.87 -192.09,466.641 -196.16,465.491C-196.74,465.321 -197.33,465.161 -197.91,465.001C-199.44,464.581 -200.98,464.171 -202.53,463.771C-203.11,463.62 -203.7,463.471 -204.29,463.321C-208.41,462.291 -212.57,461.341 -216.77,460.491C-217.37,460.37 -217.97,460.251 -218.57,460.131C-220.15,459.821 -221.73,459.521 -223.32,459.241C-223.92,459.131 -224.52,459.021 -225.13,458.911C-229.37,458.181 -233.64,457.541 -237.94,456.991C-238.55,456.911 -239.16,456.841 -239.78,456.761C-241.39,456.571 -243.02,456.391 -244.64,456.221C-245.26,456.151 -245.88,456.091 -246.5,456.031C-250.84,455.601 -255.2,455.281 -259.6,455.051C-260.23,455.021 -260.85,454.991 -261.48,454.961C-263.13,454.881 -264.79,454.821 -266.45,454.771C-267.08,454.761 -267.71,454.741 -268.34,454.721C-270.56,454.671 -272.77,454.641 -275,454.641C-344.87,454.641 -405.71,476.981 -451.83,515.62C-508.49,560.181 -547.79,625.781 -557.97,701C-567.99,680.561 -581.47,648.5 -590.59,609.12C-593.68,594.881 -595.49,578.421 -594.91,558.031C-586.77,485.421 -602.18,411.731 -637.33,348.37C-637.84,347.451 -638.37,346.541 -638.9,345.62C-653,321.641 -639.48,272.561 -657.48,252.561C-636.48,270.561 -650,316.641 -627.85,333.751C-627.04,334.431 -626.25,335.111 -625.46,335.791C-596.89,360.851 -573.23,391.731 -549.13,421.561C-538.31,434.721 -530.42,439.87 -528.02,438.471C-516.77,431.891 -509.31,418.951 -511.83,403.981C-519.95,355.651 -539.49,313.721 -541.95,278.231C-543.46,256.561 -543.09,237.251 -539.98,219.421C-532.76,203.791 -525.9,188.12 -519.56,172.271C-519.18,171.341 -518.81,170.401 -518.44,169.471C-504,137.641 -496,103.641 -499,68.641C-485,102.641 -496,138.641 -500.76,173.891C-500.75,174.971 -500.72,176.041 -500.69,177.101C-500.07,195.111 -495.78,210.811 -489.12,223.471C-470.33,259.231 -451.04,287.451 -449.07,257.311C-448.16,243.301 -453.41,175.911 -393.76,110.071C-393.76,110.071 -388.11,102.091 -367.23,93.061C-312.42,72.941 -259.64,41.171 -225.14,-5.929C-224.55,-6.779 -223.96,-7.639 -223.39,-8.539C-213,-27.359 -212,-49.359 -212,-70.359C-206,-48.359 -203,-25.359 -205.93,-2.739C-206.17,-1.699 -206.43,-0.679 -206.69,0.331C-217.49,38.901 -243.33,73.251 -265,108.641C-267,111.641 -267,114.641 -267.24,118.911C-265.15,126.571 -263.37,132.951 -262.11,137.411C-260.86,141.881 -260.12,144.431 -260.12,144.431C-265.27,150.731 -271.63,158.091 -276.84,165.891C-277.42,166.751 -277.98,167.62 -278.53,168.501C-278.95,169.341 -279.38,170.211 -279.83,171.101C-280.29,172.021 -280.77,172.971 -281.27,173.961C-282.498,176.447 -283.572,179.513 -284.502,182.944C-285.432,186.375 -286.216,190.17 -286.507,194.151C-285.756,196.442 -285.241,198.685 -284.951,200.888C-284.635,203.1 -284.148,205.365 -283.604,207.676C-278,217.901 -287,227.901 -290,236.901C-273,240.901 -260,229.901 -259.407,212.513C-257.864,208.723 -256.033,205.224 -253.812,202.08C-251.59,198.936 -249.202,195.932 -246.48,193.231C-245.98,192.781 -245.49,192.351 -244.97,191.941C-241.91,189.491 -238.33,187.521 -234.27,186.291C-231.61,185.011 -226.95,184.411 -226.67,181.211C-221.506,122.196 -163.135,82.55 -101.83,48.837C-99.952,47.793 -98.078,46.763 -96.136,45.653C-85,38.901 -73,33.901 -62.313,27.931C-58.977,26.101 -55.604,24.206 -52.037,22.304C-19.766,5.135 9.3,-11.359 27,-29.359C16.233,-16.91 -3.703,4.029 -26.108,27.291C-27.523,28.884 -28.992,30.466 -30.152,32.214C-32,37.901 -34,43.901 -38,48.901C-54.625,64.651 -76.609,72.745 -90.315,90.219C-92.272,92.716 -94.062,95.404 -95.643,98.332C-109,109.901 -121,120.901 -125,140.901C-126,145.901 -130,148.901 -134.021,152.597C-136.377,154.37 -138.86,155.823 -141.392,157.253C-159.121,167.159 -179.219,175.965 -180.747,197.412C-181.871,199.918 -182.682,202.551 -183.085,205.314C-183.489,208.077 -183.485,210.969 -182.98,213.991C-182.577,216.812 -182.303,219.65 -182.142,222.53C-181.687,231.151 -182.25,240.151 -188.999,246.901C-176.133,255.746 -165.167,250.44 -158.728,239.021C-151.367,225.969 -145.617,214.128 -128.719,211.902C-122.177,211.04 -115.34,211.978 -109.094,209.849C-102.849,207.72 -97.442,200.627 -100.378,194.718C-102.634,190.177 -108.33,188.839 -112.598,186.1C-123.983,178.795 -123.946,161.025 -116.105,150.003C-108.264,138.98 -95.26,133.067 -82.87,127.639C-93.956,132.01 -103.869,139.317 -111.324,148.615C-116.41,154.958 -120.354,164.127 -115.883,170.918C-111.003,178.332 -99.864,177.607 -92.351,182.338C-76.447,192.358 -87.668,225.224 -102.663,230.604C-102.457,228.614 -102.252,226.623 -102.047,224.633C-103.926,225.572 -105.805,226.511 -107.684,227.45C-106.458,227.262 -105.232,227.074 -104.008,226.886C-107.377,227.337 -107.08,233.021 -104.032,234.527C-100.983,236.034 -97.358,234.744 -94.215,233.449C-75.729,225.83 -57.243,218.21 -38.758,210.591C-56.499,224.647 -74.241,238.702 -91.983,252.758C-97.558,257.174 -103.513,262.196 -104.838,269.183C-107.555,283.505 -89.429,296.086 -93.122,310.187C-96.176,321.848 -112.736,325.676 -114.121,337.171C-108.252,335.225 -102.269,333.684 -96,332.901C-85,331.901 -84,318.901 -77,310.901C-75,308.901 -72,307.901 -69.465,308.376C-67.535,308.606 -65.5,308.401 -63,307.901C-58,306.901 -54,302.901 -57,298.901C-63,289.151 -64.781,278.135 -63.088,267.934C-62.527,264.542 -61.627,261.297 -60.388,258.281C-57,251.901 -54,245.901 -48.324,241.855C-45.691,239.691 -42.754,237.849 -39.541,236.406C-36.328,234.962 -32.84,233.917 -29.103,233.348C-25.518,232.222 -23.937,230.944 -22.467,229.827C-15.848,222.719 -13.082,221.688 -14.206,226.723C-14.581,228.402 -15.388,230.755 -16.933,233.647C-34,238.901 -54,245.901 -54,266.901C-53,279.901 -39,278.901 -30,285.901C-22,290.901 -23,302.901 -28,310.901C-32.5,317.651 -38.125,322.151 -45.056,325.232C-47.366,326.259 -49.821,327.128 -52.429,327.871C-53,328.901 -55,329.901 -55,329.901C-53.5,333.026 -52.531,335.979 -52.008,338.791C-51.465,341.618 -51.366,344.303 -51.228,347.148C-50,364.901 -66,375.901 -77,387.901C-76,386.901 -74,383.901 -73,383.901C-57,383.901 -42,376.901 -34.335,362.752C-32.606,359.807 -31.024,356.96 -29.878,353.824C-28.721,350.708 -27.998,347.303 -27.798,343.583C-27.29,340.077 -25.259,337.982 -23.193,335.918C-16.5,330.141 -9.5,324.641 -2,319.641C-8,326.641 -13.25,333.891 -17.345,341.643C-18.62,344.375 -19.767,347.164 -19.951,351.364C-18.476,360.632 -22.487,370.266 -25.302,379.699C-26.241,382.847 -27.047,385.974 -27.479,389.143C-27.912,392.313 -27.955,395.27 -27.355,398.139C-26.77,401.104 -25.556,404.003 -23.467,406.824C-21.774,408.341 -20.498,410.511 -19.792,413.415C-7.724,429.59 -4.685,449.221 -11.482,467.275C-12.465,469.957 -13.704,473.481 -15.393,477.792C-14,476.901 -14,475.901 -14,474.901C-18,484.901 -26,491.901 -33,498.901C-27,501.901 -22,495.901 -17,494.901C-19,494.901 -20,494.901 -22.409,496.209C-19.791,493.868 -17.535,492.193 -15.629,491.166C-10.203,488.588 -4.812,486.15 -1.249,480.899C0.194,479.199 1.321,476.839 2.275,473.973C7.028,459.681 7.462,432.756 10.52,434.581C50.69,458.471 50.54,382.831 50.56,381.791C51.3,403.211 50.59,513.221 10,544.641C-17.27,565.751 -10,598.641 0,630.641" style="fill:rgb(179,179,179);fill-rule:nonzero;"/>
        </g>
        <g transform="matrix(1,0,0,1,631.193,145.834)">
            <path d="M0,52.352C19.977,37.014 40.258,19.005 60.391,2.737C81.692,-14.476 87.556,-30.262 90.287,-57.574C88.811,-42.813 92.23,-29.139 84.845,-14.915C78.519,-2.731 65.353,6.478 55.594,16.268C41.828,30.076 28.54,44.441 16.748,59.99C5.487,74.838 -2.643,94.622 -17.944,105.845C-21.463,108.426 -25.213,109.926 -28.624,109.803C-37.713,109.426 -40.713,98.426 -36.475,92.754C-34.855,90.792 -33.146,88.915 -31.509,86.907C-27.386,81.929 -23.722,76.137 -19.924,70.536C-18.646,68.683 -17.355,66.85 -15.873,65.254C-12.713,62.426 -9.713,59.426 -6.039,57.087C-4.035,55.452 -2.003,53.89 0,52.352" style="fill:rgb(128,128,128);fill-rule:nonzero;"/>
        </g>
        <g transform="matrix(1,0,0,1,666.489,188.821)">
            <path d="M0,261.16C22.186,246.995 32.319,216.528 23.038,191.897C20.274,184.56 16.057,177.87 12.718,170.777C-0.151,143.434 0.72,111.22 8.883,82.123C17.045,53.026 31.965,26.356 46.752,0C37.297,44.164 16.365,88.094 24.732,132.476C29.463,157.571 43.49,181.45 40.93,206.858C39.416,221.884 31.798,236.205 20.184,245.858" style="fill:rgb(128,128,128);fill-rule:nonzero;"/>
        </g>
    </g>
</svg>
