<?xml version="1.0" encoding="UTF-8" standalone="no"?>
<!DOCTYPE svg PUBLIC "-//W3C//DTD SVG 1.1//EN" "http://www.w3.org/Graphics/SVG/1.1/DTD/svg11.dtd">
<svg width="100%" height="100%" viewBox="0 0 215 103" version="1.1" xmlns="http://www.w3.org/2000/svg" xmlns:xlink="http://www.w3.org/1999/xlink" xml:space="preserve" xmlns:serif="http://www.serif.com/" style="fill-rule:evenodd;clip-rule:evenodd;stroke-linecap:round;stroke-linejoin:round;stroke-miterlimit:1.5;">
    <g transform="matrix(0.982285,0,0,1.1043,-1443.79,-367.817)">
        <path d="M1687.33,338.51C1687.33,336.01 1685.05,333.983 1682.24,333.983C1654.17,333.983 1518.49,333.983 1490.41,333.983C1487.6,333.983 1485.33,336.01 1485.33,338.51L1485.33,368.732L1470.84,378.779L1485.33,387.667L1485.33,420.643C1485.33,421.844 1485.86,422.995 1486.82,423.845C1487.77,424.694 1489.07,425.171 1490.41,425.171C1518.49,425.171 1654.17,425.171 1682.24,425.171C1685.05,425.171 1687.33,423.144 1687.33,420.643C1687.33,405.104 1687.33,354.049 1687.33,338.51Z" style="fill:rgb(58,57,57);stroke:black;stroke-width:1.91px;"/>
    </g>
</svg>
