<?xml version="1.0" encoding="UTF-8" standalone="no"?><!DOCTYPE svg PUBLIC "-//W3C//DTD SVG 1.1//EN" "http://www.w3.org/Graphics/SVG/1.1/DTD/svg11.dtd"><svg width="100%" height="100%" viewBox="0 0 150 150" version="1.1" xmlns="http://www.w3.org/2000/svg" xmlns:xlink="http://www.w3.org/1999/xlink" xml:space="preserve" xmlns:serif="http://www.serif.com/" style="fill-rule:evenodd;clip-rule:evenodd;stroke-linejoin:round;stroke-miterlimit:2;"><path d="M144.75,147.75l-68.625,0l0,-11.625l26.156,0l0,-41.625c0,-10.564 -8.089,-19.237 -18.416,-20.171c11.047,-3.972 18.979,-14.974 18.979,-27.923c0,-16.312 -12.589,-29.531 -28.125,-29.531c-15.537,0 -28.125,13.219 -28.125,29.531c0,12.881 7.852,23.828 18.798,27.867c-10.766,0.461 -19.361,9.337 -19.361,20.227l0,41.625l27.844,0l0,11.625l-68.625,0c-1.657,0 -3,-1.343 -3,-3l0,-139.5c0,-1.657 1.343,-3 3,-3l139.5,0c1.657,0 3,1.343 3,3l0,139.5c0,1.65 -1.35,3 -3,3m-144.75,-142.5l0,139.5c0,2.9 2.35,5.25 5.25,5.25l139.5,0c2.887,0 5.25,-2.363 5.25,-5.25l0,-139.5c0,-2.9 -2.351,-5.25 -5.25,-5.25l-139.5,0c-2.9,0 -5.25,2.35 -5.25,5.25" style="fill:#b3b3b3;fill-rule:nonzero;"/></svg>